<svg xmlns="http://www.w3.org/2000/svg"  viewBox="0 0 100 100" width="400px" height="400px"><circle cx="50" cy="50" r="34" fill="#f15b6c"/><path fill="#1f212b" d="M50,85c-19.299,0-35-15.701-35-35s15.701-35,35-35s35,15.701,35,35S69.299,85,50,85z M50,17	c-18.196,0-33,14.804-33,33s14.804,33,33,33s33-14.804,33-33S68.196,17,50,17z"/><path fill="#1f212b" d="M65.5,24.227c-0.087,0-0.175-0.022-0.254-0.069c-0.643-0.379-1.305-0.738-1.968-1.066	c-0.248-0.123-0.349-0.422-0.227-0.67c0.123-0.248,0.425-0.347,0.67-0.227c0.686,0.339,1.369,0.71,2.032,1.102	c0.238,0.141,0.317,0.447,0.177,0.685C65.837,24.139,65.671,24.227,65.5,24.227z"/><path fill="#1f212b" d="M68.5,26.249c-0.106,0-0.213-0.034-0.304-0.103c-0.322-0.247-0.651-0.487-0.983-0.719	c-0.226-0.159-0.281-0.471-0.122-0.697c0.158-0.227,0.469-0.28,0.696-0.123c0.344,0.241,0.683,0.489,1.017,0.745	c0.22,0.167,0.261,0.481,0.094,0.701C68.799,26.182,68.65,26.249,68.5,26.249z"/><path fill="#1f212b" d="M50,81c-17.094,0-31-13.906-31-31c0-17.093,13.906-31,31-31c3.666,0,7.257,0.635,10.672,1.887	c0.26,0.095,0.393,0.382,0.298,0.641c-0.095,0.26-0.384,0.393-0.642,0.297C57.023,20.614,53.549,20,50,20c-16.542,0-30,13.458-30,30	s13.458,30,30,30s30-13.458,30-30c0-8.439-3.585-16.535-9.836-22.213c-0.205-0.186-0.22-0.502-0.034-0.706	c0.187-0.205,0.502-0.219,0.706-0.034C77.296,32.914,81,41.28,81,50C81,67.094,67.094,81,50,81z"/><path fill="#fff" d="M43.5,61c-0.084,0-0.169-0.021-0.244-0.063C43.098,60.848,43,60.681,43,60.5v-21	c0-0.177,0.094-0.341,0.246-0.431c0.153-0.09,0.342-0.093,0.497-0.007l18,10c0.155,0.087,0.253,0.249,0.257,0.427	s-0.088,0.345-0.239,0.438l-18,11C43.681,60.976,43.591,61,43.5,61z"/><path fill="#1f212b" d="M52,55.806c-0.168,0-0.332-0.085-0.427-0.239c-0.144-0.235-0.069-0.543,0.166-0.688l2-1.223 c0.233-0.142,0.542-0.07,0.688,0.166c0.144,0.235,0.069,0.543-0.166,0.688l-2,1.223C52.18,55.782,52.09,55.806,52,55.806z"/><path fill="#1f212b" d="M43.5,61c-0.084,0-0.169-0.021-0.244-0.063C43.098,60.848,43,60.681,43,60.5v-21 c0-0.177,0.094-0.341,0.246-0.431c0.153-0.09,0.342-0.093,0.497-0.007l18,10c0.155,0.087,0.253,0.249,0.257,0.427 s-0.088,0.345-0.239,0.438l-4.5,2.75c-0.235,0.143-0.543,0.069-0.688-0.166c-0.144-0.235-0.069-0.543,0.166-0.688l3.769-2.303 L44,40.35v19.259l4.739-2.896c0.233-0.145,0.542-0.07,0.688,0.166c0.144,0.235,0.069,0.543-0.166,0.688l-5.5,3.361 C43.681,60.976,43.591,61,43.5,61z"/><path fill="#fff" d="M50,28.5c-11.856,0-21.5,9.644-21.5,21.5c0,11.856,9.644,21.5,21.5,21.5S71.5,61.856,71.5,50	C71.5,38.144,61.856,28.5,50,28.5z M50,68.5c-10.201,0-18.5-8.299-18.5-18.5S39.799,31.5,50,31.5S68.5,39.799,68.5,50	S60.201,68.5,50,68.5z"/><path fill="#1f212b" d="M50,69c-10.477,0-19-8.523-19-19s8.523-19,19-19s19,8.523,19,19S60.477,69,50,69z M50,32	c-9.925,0-18,8.075-18,18s8.075,18,18,18s18-8.075,18-18S59.925,32,50,32z"/><path fill="#1f212b" d="M50,72c-12.131,0-22-9.869-22-22s9.869-22,22-22s22,9.869,22,22S62.131,72,50,72z M50,29	c-11.579,0-21,9.421-21,21s9.421,21,21,21s21-9.421,21-21S61.579,29,50,29z"/></svg>